<?xml version="1.0" encoding="UTF-8"?>
<svg id="Layer_2" data-name="Layer 2" xmlns="http://www.w3.org/2000/svg" viewBox="0 0 1000 487.37">
  <defs>
    <style>
      .cls-1 {
        fill: #fff;
      }
    </style>
  </defs>
  <g id="Layer_1-2" data-name="Layer 1">
    <g>
      <g>
        <path class="cls-1" d="M153.84,179.5h-80.66l-12.96,37.74H0L82.68.03h61.65l82.68,217.22h-60.21l-12.96-37.74ZM138.86,136.58l-25.35-72.31-25.35,72.31h50.7Z"/>
        <path class="cls-1" d="M241.04,217.24V.03h56.47l104.29,132.81V.03h56.18v217.22h-56.18l-104.29-132.81v132.81h-56.47Z"/>
        <path class="cls-1" d="M930.02,217.24h-70.29l-53.87-83.55v83.55h-56.47V.03h87.87c12.1,0,22.66,1.78,31.69,5.33,9.03,3.56,16.47,8.4,22.33,14.55,5.86,6.15,10.27,13.25,13.25,21.32,2.98,8.07,4.47,16.71,4.47,25.93,0,16.52-3.99,29.92-11.96,40.19-7.97,10.28-19.73,17.24-35.29,20.89l68.28,89.02ZM805.86,97.11h10.66c11.14,0,19.68-2.3,25.64-6.91,5.95-4.61,8.93-11.24,8.93-19.88s-2.98-15.27-8.93-19.88c-5.96-4.61-14.5-6.91-25.64-6.91h-10.66v53.58Z"/>
        <path class="cls-1" d="M1000,.03v217.22h-56.47V.03h56.47Z"/>
        <path class="cls-1" d="M103.14,311.93v169.4h-56.47v-169.4H.29v-47.82h149.23v47.82h-46.38Z"/>
        <path class="cls-1" d="M292.18,311.93h-67.12v36.3h63.38v47.82h-63.38v37.45h67.12v47.82h-123.59v-217.22h123.59v47.82Z"/>
        <path class="cls-1" d="M482.72,336.7c-13.06-15.94-29.2-23.91-48.4-23.91-8.45,0-16.28,1.54-23.48,4.61-7.2,3.07-13.4,7.25-18.58,12.53-5.19,5.28-9.27,11.57-12.24,18.87-2.98,7.3-4.47,15.17-4.47,23.62s1.49,16.61,4.47,23.91c2.98,7.3,7.1,13.64,12.39,19.01,5.28,5.38,11.47,9.61,18.58,12.68,7.1,3.07,14.79,4.61,23.05,4.61,18.05,0,34.28-7.68,48.69-23.05v66.84l-5.76,2.02c-8.64,3.07-16.71,5.33-24.2,6.77-7.49,1.44-14.89,2.16-22.18,2.16-14.98,0-29.34-2.84-43.07-8.5-13.73-5.66-25.83-13.63-36.3-23.91-10.47-10.27-18.87-22.47-25.21-36.59-6.34-14.12-9.51-29.53-9.51-46.24s3.12-32.02,9.36-45.95c6.24-13.92,14.59-25.93,25.06-36.01,10.47-10.08,22.61-17.96,36.44-23.62,13.83-5.66,28.33-8.5,43.5-8.5,8.64,0,17.14.91,25.5,2.74,8.35,1.83,17.14,4.66,26.36,8.5v67.41Z"/>
        <path class="cls-1" d="M574.61,347.94h81.53v-83.83h56.47v217.22h-56.47v-89.59h-81.53v89.59h-56.47v-217.22h56.47v83.83Z"/>
      </g>
      <path class="cls-1" d="M706.51,0h-205.13c-3.31,0-6,2.69-6,6v205.13c0,3.31,2.69,6,6,6h205.13c3.31,0,6-2.69,6-6V6c0-3.31-2.69-6-6-6ZM603.94,174.66c-36.5,0-66.1-29.59-66.1-66.1s29.59-66.1,66.1-66.1,66.1,29.59,66.1,66.1-29.59,66.1-66.1,66.1Z"/>
    </g>
  </g>
</svg>