<?xml version="1.0" encoding="UTF-8" standalone="no"?>
<!DOCTYPE svg PUBLIC "-//W3C//DTD SVG 1.1//EN" "http://www.w3.org/Graphics/SVG/1.1/DTD/svg11.dtd">
<svg width="100%" height="100%" viewBox="0 0 500 244" version="1.1" xmlns="http://www.w3.org/2000/svg" xmlns:xlink="http://www.w3.org/1999/xlink" xml:space="preserve" xmlns:serif="http://www.serif.com/" style="fill-rule:evenodd;clip-rule:evenodd;stroke-linejoin:round;stroke-miterlimit:2;">
    <g id="Layer_1-2">
        <g>
            <g>
                <path d="M76.93,89.75L36.59,89.75L30.11,108.62L0,108.62L41.34,0.01L72.17,0.01L113.51,108.62L83.41,108.62L76.93,89.75ZM69.43,68.29L56.75,32.14L44.07,68.29L69.43,68.29Z" style="fill:rgb(0,0,41);fill-rule:nonzero;"/>
                <path d="M120.52,108.62L120.52,0.01L148.75,0.01L200.89,66.41L200.89,0.01L228.98,0.01L228.98,108.62L200.89,108.62L148.75,42.22L148.75,108.62L120.52,108.62Z" style="fill:rgb(0,0,41);fill-rule:nonzero;"/>
                <path d="M465.01,108.62L429.86,108.62L402.92,66.85L402.92,108.62L374.69,108.62L374.69,0.01L418.62,0.01C424.67,0.01 429.95,0.9 434.46,2.67C438.97,4.45 442.69,6.87 445.62,9.94C448.55,13.01 450.76,16.57 452.25,20.6C453.74,24.63 454.48,28.95 454.48,33.56C454.48,41.82 452.49,48.52 448.5,53.65C444.51,58.79 438.63,62.27 430.85,64.09L464.99,108.6L465.01,108.62ZM402.93,48.56L408.26,48.56C413.83,48.56 418.1,47.41 421.08,45.1C424.06,42.8 425.55,39.48 425.55,35.16C425.55,30.84 424.06,27.53 421.08,25.22C418.1,22.92 413.83,21.76 408.26,21.76L402.93,21.76L402.93,48.56Z" style="fill:rgb(0,0,41);fill-rule:nonzero;"/>
                <rect x="471.77" y="0.01" width="28.23" height="108.61" style="fill:rgb(0,0,41);fill-rule:nonzero;"/>
                <path d="M51.57,155.96L51.57,240.66L23.34,240.66L23.34,155.96L0.14,155.96L0.14,132.05L74.75,132.05L74.75,155.96L51.56,155.96L51.57,155.96Z" style="fill:rgb(0,0,41);fill-rule:nonzero;"/>
                <path d="M146.09,155.96L112.53,155.96L112.53,174.11L144.22,174.11L144.22,198.02L112.53,198.02L112.53,216.75L146.09,216.75L146.09,240.66L84.3,240.66L84.3,132.05L146.09,132.05L146.09,155.96Z" style="fill:rgb(0,0,41);fill-rule:nonzero;"/>
                <path d="M241.36,168.35C234.83,160.38 226.76,156.39 217.16,156.39C212.93,156.39 209.02,157.16 205.42,158.7C201.82,160.24 198.72,162.33 196.13,164.97C193.54,167.61 191.5,170.76 190.01,174.4C188.52,178.05 187.78,181.99 187.78,186.21C187.78,190.43 188.52,194.52 190.01,198.17C191.5,201.82 193.56,204.99 196.2,207.68C198.84,210.37 201.94,212.48 205.49,214.02C209.04,215.56 212.88,216.33 217.01,216.33C226.04,216.33 234.15,212.49 241.35,204.81L241.35,238.23L238.47,239.24C234.15,240.78 230.12,241.91 226.37,242.63C222.63,243.35 218.93,243.71 215.28,243.71C207.79,243.71 200.61,242.29 193.75,239.46C186.88,236.63 180.83,232.64 175.6,227.5C170.36,222.36 166.17,216.26 163,209.21C159.83,202.15 158.25,194.45 158.25,186.09C158.25,177.73 159.81,170.08 162.93,163.11C166.05,156.15 170.23,150.15 175.46,145.1C180.69,140.06 186.77,136.12 193.68,133.29C200.59,130.46 207.84,129.04 215.43,129.04C219.75,129.04 224,129.5 228.18,130.41C232.36,131.32 236.75,132.74 241.36,134.66L241.36,168.37L241.36,168.35Z" style="fill:rgb(0,0,41);fill-rule:nonzero;"/>
                <path d="M287.31,173.97L328.07,173.97L328.07,132.05L356.3,132.05L356.3,240.66L328.07,240.66L328.07,195.86L287.31,195.86L287.31,240.66L259.08,240.66L259.08,132.05L287.31,132.05L287.31,173.97Z" style="fill:rgb(0,0,41);fill-rule:nonzero;"/>
            </g>
            <path d="M353.25,0L250.68,0C249.02,0 247.68,1.34 247.68,3L247.68,105.57C247.68,107.23 249.02,108.57 250.68,108.57L353.25,108.57C354.91,108.57 356.25,107.23 356.25,105.57L356.25,3C356.25,1.34 354.91,0 353.25,0ZM301.97,87.33C283.72,87.33 268.92,72.53 268.92,54.28C268.92,36.03 283.72,21.23 301.97,21.23C320.22,21.23 335.02,36.03 335.02,54.28C335.02,72.53 320.22,87.33 301.97,87.33Z" style="fill:rgb(0,0,41);fill-rule:nonzero;"/>
        </g>
    </g>
</svg>
