<?xml version="1.0" encoding="UTF-8" standalone="no"?>
<!DOCTYPE svg PUBLIC "-//W3C//DTD SVG 1.1//EN" "http://www.w3.org/Graphics/SVG/1.1/DTD/svg11.dtd">
<svg width="100%" height="100%" viewBox="0 0 500 500" version="1.1" xmlns="http://www.w3.org/2000/svg" xmlns:xlink="http://www.w3.org/1999/xlink" xml:space="preserve" xmlns:serif="http://www.serif.com/" style="fill-rule:evenodd;clip-rule:evenodd;stroke-linejoin:round;stroke-miterlimit:2;">
    <g id="Layer_1-2">
        <path d="M486.18,0L13.82,0C6.19,0 0,6.19 0,13.82L0,486.18C0,493.81 6.19,500 13.82,500L486.18,500C493.81,500 500,493.81 500,486.18L500,13.82C500,6.19 493.81,0 486.18,0ZM250,402.2C165.94,402.2 97.8,334.06 97.8,250C97.8,165.94 165.94,97.8 250,97.8C334.06,97.8 402.2,165.94 402.2,250C402.2,334.06 334.06,402.2 250,402.2Z" style="fill:rgb(0,0,41);fill-rule:nonzero;"/>
    </g>
</svg>
